<svg version="1.1" id="Layer_1" xmlns="http://www.w3.org/2000/svg" xmlns:xlink="http://www.w3.org/1999/xlink" x="0px" y="0px"
	 width="100%" viewBox="0 0 1024 1024" enable-background="new 0 0 1024 1024" xml:space="preserve">
<path fill="#F88F12" opacity="1.000000" stroke="none" 
	d="
M345.783875,341.338074 
	C403.534027,345.217072 449.711609,371.244476 488.267303,412.467224 
	C491.563263,415.991211 494.937744,419.509674 497.685120,423.443237 
	C498.696991,424.892029 498.916779,428.254181 497.929199,429.511169 
	C492.817413,436.017456 487.197723,442.124664 481.302216,448.890808 
	C478.169281,445.233093 475.502808,442.092346 472.806976,438.977020 
	C450.887482,413.645966 426.124115,392.074615 395.138489,378.194000 
	C337.627472,352.430847 271.071289,365.409637 228.673325,411.449615 
	C207.855118,434.056152 197.941116,461.401917 195.987701,491.777466 
	C193.714874,527.119629 202.157227,559.637634 225.185440,586.843445 
	C254.628372,621.627808 293.329346,635.988281 338.348297,632.359985 
	C377.470276,629.206909 411.568451,612.388062 443.508575,590.632385 
	C473.803192,569.997559 500.534363,545.176514 526.714844,519.711426 
	C530.537354,515.993469 534.366455,512.281982 538.226624,508.603394 
	C544.332520,502.784912 545.866150,502.618927 551.866760,508.364044 
	C562.815918,518.847046 573.566833,529.536987 584.413452,540.127258 
	C605.415222,560.632690 626.736572,580.773438 651.785645,596.413330 
	C657.546814,600.010376 663.679626,603.012207 669.568237,606.681152 
	C642.244263,607.100220 616.191589,600.404358 590.581055,591.227966 
	C590.380310,591.732056 590.179565,592.236145 589.978821,592.740295 
	C592.450439,594.532776 594.863770,596.412842 597.402710,598.104248 
	C624.971985,616.469666 654.646423,629.359436 687.983887,632.480042 
	C744.753540,637.793884 810.470337,608.118896 826.847229,534.441223 
	C835.749634,494.390259 830.771362,456.273499 806.011536,422.592773 
	C781.570618,389.345734 748.252380,370.344727 707.087097,366.090363 
	C662.257385,361.457306 624.060669,377.322205 590.103027,405.380890 
	C563.051880,427.732819 541.434814,455.010559 519.953064,482.467468 
	C501.793854,505.677704 483.759216,529.052429 464.352448,551.200378 
	C445.695221,572.492859 422.763702,588.615479 395.961060,598.531311 
	C381.043854,604.050171 365.610626,607.378357 348.574066,607.458130 
	C350.241638,606.272278 351.142242,605.457825 352.184570,604.915894 
	C383.712036,588.526733 410.332581,565.910950 432.703217,538.663574 
	C459.227295,506.357391 484.388885,472.936462 510.443848,440.239990 
	C531.326782,414.033875 554.848938,390.499176 583.449951,372.621613 
	C632.276306,342.101898 684.710022,331.959351 740.375610,348.700012 
	C783.253601,361.594971 816.797363,387.558014 837.373230,428.173462 
	C853.213379,459.441040 857.522400,492.761566 852.517334,527.342102 
	C847.847290,559.608093 835.013977,588.131958 811.981079,611.384766 
	C784.343811,639.285828 750.397461,653.956970 711.330750,656.862976 
	C659.296204,660.733643 614.497009,642.230225 574.230164,611.208618 
	C559.503784,599.863464 546.220154,586.627930 532.458313,574.057739 
	C527.447266,569.480530 527.674500,568.836914 532.135925,563.435364 
	C534.677673,560.358093 537.225525,557.285767 540.311340,553.558044 
	C538.547852,551.638611 536.821777,549.497986 534.826904,547.647095 
	C531.454895,544.518311 528.601807,544.746704 525.047791,548.218872 
	C507.899048,564.972717 491.075989,582.141174 472.970581,597.814758 
	C448.000305,619.431213 420.147644,636.743835 388.599396,647.389587 
	C353.440674,659.253784 317.728821,661.799194 281.977936,650.900696 
	C222.332657,632.718018 185.828918,592.520508 174.604065,531.338623 
	C166.232849,485.710571 174.625748,442.535431 203.320938,405.043182 
	C230.066330,370.098450 266.222534,350.088837 309.463470,343.253143 
	C321.220734,341.394531 333.350128,341.889893 345.783875,341.338074 
z"/>
<path fill="#F88F12" fill-rule="evenodd" opacity="1.000000" stroke="none" 
	d="
M364.756348,502.206848 
	C386.058868,515.043030 387.907654,552.750732 365.732086,569.989319 
	C356.259247,577.353210 345.497192,580.810852 333.803558,581.345337 
	C328.898834,581.569580 327.653900,583.281006 327.891724,587.890503 
	C328.259247,595.013916 327.988617,602.170349 327.988617,609.743774 
	C320.430969,609.743774 313.207672,609.743774 305.374207,609.743774 
	C305.374207,600.887390 305.374207,591.988892 305.374207,583.488770 
	C304.510010,582.933411 304.248047,582.617615 303.987518,582.618835 
	C290.949097,582.679016 293.388428,580.562988 293.126587,593.097656 
	C293.012512,598.558716 293.107422,604.024048 293.107422,609.829102 
	C285.710266,609.829102 278.787506,609.829102 271.025116,609.829102 
	C271.025116,605.006409 271.040466,600.087830 271.020081,595.169373 
	C271.004913,591.504333 271.212646,587.805115 270.751862,584.193726 
	C270.597473,582.983643 268.655670,581.025085 267.581848,581.058289 
	C255.377502,581.435547 243.183044,582.132751 230.548645,582.766296 
	C230.548645,573.707886 230.548645,565.634277 230.548645,557.140564 
	C235.798416,556.750793 241.209976,556.299866 246.628769,555.967041 
	C249.424423,555.795349 250.749863,554.728638 250.742477,551.659119 
	C250.657043,516.173950 250.676178,480.688568 250.652924,445.203247 
	C250.652603,444.719238 250.463684,444.235352 250.230942,443.118958 
	C243.791916,442.760864 237.211884,442.394958 230.253220,442.007965 
	C230.253220,433.865204 230.253220,425.804382 230.253220,416.926300 
	C236.213043,416.926300 242.136505,416.953552 248.059570,416.918701 
	C254.056564,416.883392 260.059082,416.599457 266.047760,416.787384 
	C269.616089,416.899353 270.661346,415.526581 270.589996,412.141876 
	C270.421936,404.169250 270.536133,396.190643 270.536133,387.295044 
	C277.165070,387.295044 283.417877,387.141296 289.643524,387.482452 
	C290.455658,387.526947 291.727356,390.100433 291.765869,391.530029 
	C291.975586,399.315796 291.865601,407.110138 291.865601,415.082275 
	C296.231659,415.082275 299.950134,415.082275 304.246643,415.082275 
	C304.246643,405.776245 304.246643,396.855072 304.246643,387.214996 
	C311.229797,387.214996 317.654785,387.066315 324.054260,387.402710 
	C324.856567,387.444855 326.118835,390.031250 326.155792,391.464905 
	C326.361328,399.438324 326.254425,407.419739 326.254425,415.797577 
	C330.344727,416.559998 334.410889,417.131287 338.384247,418.088165 
	C368.884674,425.433319 377.651886,451.434174 369.639435,474.665710 
	C367.144684,481.899078 361.975708,487.043823 355.675171,491.123199 
	C353.605164,492.463470 351.445770,493.665649 349.198730,495.007751 
	C354.453430,497.421143 359.452301,499.717041 364.756348,502.206848 
M341.710785,522.951721 
	C337.663177,517.793152 332.136536,515.010498 325.827728,514.527588 
	C316.553040,513.817566 307.225677,513.767639 297.918488,513.522583 
	C293.660461,513.410522 289.397064,513.503479 285.181702,513.503479 
	C285.181702,528.085938 285.181702,541.646179 285.181702,555.447754 
	C286.569977,555.577698 287.534851,555.775269 288.491486,555.741333 
	C300.787994,555.305481 313.137451,555.404053 325.365570,554.236328 
	C341.627258,552.683533 349.107849,538.418274 341.710785,522.951721 
M284.617645,468.499084 
	C284.617645,474.237549 284.617645,479.976013 284.617645,486.054352 
	C294.115875,486.054352 302.577362,486.147461 311.034576,485.999115 
	C313.665497,485.952942 316.297394,485.320435 318.907501,484.840393 
	C330.044556,482.792114 336.715790,475.488007 337.111603,464.975433 
	C337.490906,454.901520 331.333344,446.292755 320.316498,444.642303 
	C308.782593,442.914368 296.958801,443.121521 284.616119,442.447601 
	C284.616119,451.616333 284.616119,459.557892 284.617645,468.499084 
z"/>
<path fill="#F88F11" fill-rule="evenodd" opacity="1.000000" stroke="none" 
	d="
M697.954102,580.633057 
	C684.156067,580.609009 670.853699,580.609009 657.209717,580.609009 
	C657.209717,572.301941 657.209717,564.442749 657.209717,556.473816 
	C663.843384,556.098999 670.252747,555.736877 677.194885,555.344604 
	C677.194885,517.222656 677.194885,479.630646 677.194885,441.174255 
	C670.858704,441.174255 664.170105,441.174255 657.251099,441.174255 
	C657.251099,432.545380 657.251099,424.774292 657.251099,416.254639 
	C671.781677,416.254639 686.323608,416.254639 701.436584,416.254639 
	C701.436584,406.316833 701.436584,397.103302 701.436584,387.546051 
	C708.581604,387.546051 715.152771,387.546051 722.405518,387.546051 
	C722.405518,396.482574 722.405518,405.400696 722.405518,414.719360 
	C726.790771,414.719360 730.509766,414.719360 734.886414,414.719360 
	C734.886414,405.913239 734.886414,396.993713 734.886414,387.580444 
	C742.224487,387.580444 748.945374,387.580444 756.477722,387.580444 
	C756.477722,396.912842 756.477722,406.452118 756.477722,415.916412 
	C776.777344,419.590424 793.405090,427.428497 797.853455,448.865784 
	C802.048157,469.079987 794.866516,484.881256 774.939941,494.843750 
	C800.849548,502.038116 812.158508,518.340088 807.598083,544.211182 
	C803.877136,565.320557 788.853394,575.911133 756.961609,580.664673 
	C756.961609,589.576965 756.961609,598.631165 756.961609,607.996582 
	C749.292664,607.996582 742.367493,607.996582 734.822632,607.996582 
	C734.822632,598.995789 734.822632,590.095398 734.822632,580.937256 
	C730.610840,580.937256 727.012573,580.937256 722.763550,580.937256 
	C722.763550,589.875000 722.763550,598.780090 722.763550,608.036011 
	C715.227356,608.036011 708.331116,608.036011 700.289734,608.036011 
	C700.289734,600.289551 700.386169,592.673889 700.206543,585.064697 
	C700.171509,583.582520 699.063110,582.125610 697.954102,580.633057 
M717.721802,554.804260 
	C730.008362,554.237610 742.364624,554.289429 754.559998,552.914246 
	C764.846802,551.754272 771.402649,543.549683 771.716125,533.820312 
	C772.060547,523.128296 766.740906,515.288208 755.509888,513.951538 
	C741.092896,512.235779 726.447571,512.438477 711.227722,511.785858 
	C711.227722,525.119812 711.442871,537.240662 711.116943,549.346985 
	C710.994629,553.889465 712.500916,555.455750 717.721802,554.804260 
M748.883972,444.449371 
	C740.815857,443.730316 732.759460,442.622406 724.677063,442.379944 
	C711.321167,441.979279 711.306519,442.214630 711.287842,455.752258 
	C711.274597,465.346710 711.285278,474.941162 711.285278,485.936157 
	C723.634888,484.972321 735.602661,484.878967 747.243469,482.880920 
	C757.769287,481.074219 762.718018,474.483490 763.339722,465.289215 
	C764.029968,455.081543 760.160034,449.279266 748.883972,444.449371 
z"/>
</svg>
